<svg width="20" height="20" viewBox="0 0 20 20" fill="none" xmlns="http://www.w3.org/2000/svg">
<mask id="mask0_6_344" style="mask-type:luminance" maskUnits="userSpaceOnUse" x="0" y="1" width="20" height="17">
<path fill-rule="evenodd" clip-rule="evenodd" d="M0 1H20V18H0V1Z" fill="white"/>
</mask>
<g mask="url(#mask0_6_344)">
<path fill-rule="evenodd" clip-rule="evenodd" d="M16.9419 7.1602C16.9424 7.16126 16.9431 7.1625 16.9437 7.16356L15.879 7.86844C15.8964 8.33506 15.699 8.80256 15.3068 9.10632C14.6681 9.60126 13.7573 9.47381 13.2725 8.82203L12.3649 7.3581L13.6413 6.13615L9.99742 1L6.34609 6.14465L7.6135 7.3581L6.706 8.82203C6.2212 9.47381 5.31041 9.60126 4.67176 9.10632C4.2742 8.79867 4.07612 8.32231 4.09971 7.8495L3.03766 7.14639L0 5.33674L1.70885 12.1227V12.1262L2.16312 13.9306H2.16121V18H9.9643L17.8501 17.962V13.8925L17.8354 13.9306L18.0416 13.1117L18.291 12.1227L18.5405 11.1355L20.0001 5.33674L16.9419 7.1602Z" fill="#14C7C9"/>
</g>
</svg>
