<svg width="60" height="60" viewBox="0 0 60 60" fill="none" xmlns="http://www.w3.org/2000/svg">
<circle cx="30" cy="30" r="30" fill="#F5F6F8"/>
<path d="M44.4543 23.2496H39.3925L38.5965 18.019C38.5281 17.463 38.2479 16.9502 37.8089 16.578C37.37 16.2059 36.8029 16.0002 36.2152 16H23.877C23.2941 16.0015 22.7316 16.2042 22.2937 16.5707C21.8558 16.9372 21.5723 17.4426 21.4957 17.9931L20.6317 23.2496H15.529C15.315 23.2489 15.1032 23.2912 14.9074 23.3737C14.7117 23.4562 14.5364 23.577 14.3929 23.7284C14.2495 23.8797 14.1411 24.0581 14.0748 24.252C14.0086 24.4459 13.986 24.6509 14.0084 24.8537L16.7707 43.326C16.8125 43.6824 16.9907 44.0116 17.2712 44.2507C17.5517 44.4899 17.9148 44.6221 18.2913 44.6223H41.4846C41.8606 44.6221 42.2234 44.4897 42.5033 44.2505C42.7833 44.0113 42.9608 43.6821 43.0018 43.326L45.992 24.8537C46.014 24.6497 45.9906 24.4435 45.9231 24.2487C45.8556 24.0539 45.7457 23.8749 45.6005 23.7234C45.4553 23.5719 45.2781 23.4514 45.0806 23.3697C44.8831 23.2881 44.6697 23.2471 44.4543 23.2496ZM24.4825 18.962H35.5995L36.2527 23.2496H23.7749L24.4825 18.962ZM20.2201 27.9098C20.2201 28.0103 20.1781 28.1068 20.1035 28.1779C20.0288 28.249 19.9276 28.2889 19.8221 28.2889H17.9307C17.8781 28.2894 17.826 28.2799 17.7773 28.261C17.7286 28.2421 17.6843 28.2143 17.647 28.179C17.6097 28.1438 17.5801 28.1018 17.5599 28.0556C17.5397 28.0094 17.5293 27.9598 17.5293 27.9098V26.1047C17.5302 26.0038 17.5728 25.9074 17.648 25.8363C17.7232 25.7653 17.8248 25.7255 17.9307 25.7255H19.8255C19.931 25.7255 20.0322 25.7654 20.1069 25.8365C20.1815 25.9077 20.2235 26.0041 20.2235 26.1047L20.2201 27.9098ZM22.9993 41.7931C22.9993 41.8937 22.9574 41.9901 22.8827 42.0613C22.8081 42.1324 22.7069 42.1723 22.6013 42.1723H20.7065C20.601 42.1723 20.4997 42.1324 20.4251 42.0613C20.3504 41.9901 20.3085 41.8937 20.3085 41.7931V39.9913C20.3085 39.8904 20.3503 39.7936 20.4249 39.722C20.4994 39.6504 20.6006 39.6097 20.7065 39.6089H22.6013C22.6539 39.6089 22.7059 39.6188 22.7544 39.638C22.8029 39.6573 22.8469 39.6855 22.884 39.7211C22.921 39.7566 22.9502 39.7988 22.97 39.8452C22.9898 39.8916 22.9998 39.9412 22.9993 39.9913V41.7931ZM25.7786 27.926C25.7786 28.0265 25.7366 28.123 25.662 28.1941C25.5874 28.2652 25.4861 28.3051 25.3806 28.3051H23.4858C23.3802 28.3051 23.279 28.2652 23.2043 28.1941C23.1297 28.123 23.0878 28.0265 23.0878 27.926V26.1209C23.0878 26.0203 23.1297 25.9239 23.2043 25.8528C23.279 25.7816 23.3802 25.7417 23.4858 25.7417H25.3806C25.4858 25.7425 25.5866 25.7828 25.661 25.8537C25.7355 25.9246 25.7777 26.0206 25.7786 26.1209V27.926ZM28.5578 41.7931C28.5578 41.8432 28.5474 41.8928 28.5272 41.939C28.507 41.9852 28.4774 42.0272 28.4401 42.0624C28.4027 42.0977 28.3585 42.1255 28.3098 42.1444C28.2611 42.1632 28.209 42.1727 28.1564 42.1723H26.265C26.1595 42.1723 26.0582 42.1324 25.9836 42.0613C25.909 41.9901 25.867 41.8937 25.867 41.7931V39.9913C25.8666 39.9412 25.8765 39.8916 25.8963 39.8452C25.9161 39.7988 25.9454 39.7566 25.9824 39.7211C26.0194 39.6855 26.0634 39.6573 26.1119 39.638C26.1604 39.6188 26.2125 39.6089 26.265 39.6089H28.1564C28.2629 39.6089 28.365 39.6492 28.4403 39.7209C28.5155 39.7926 28.5578 39.8899 28.5578 39.9913V41.7931ZM31.3371 27.926C31.3371 27.976 31.3267 28.0256 31.3065 28.0718C31.2862 28.118 31.2566 28.16 31.2193 28.1952C31.182 28.2305 31.1377 28.2583 31.089 28.2772C31.0403 28.2961 30.9882 28.3056 30.9357 28.3051H29.0443C28.9917 28.3056 28.9396 28.2961 28.8909 28.2772C28.8422 28.2583 28.798 28.2305 28.7606 28.1952C28.7233 28.16 28.6937 28.118 28.6735 28.0718C28.6533 28.0256 28.6429 27.976 28.6429 27.926V26.1209C28.6438 26.02 28.6865 25.9236 28.7616 25.8526C28.8368 25.7815 28.9384 25.7417 29.0443 25.7417H30.9357C31.0415 25.7417 31.1431 25.7815 31.2183 25.8526C31.2935 25.9236 31.3362 26.02 31.3371 26.1209V27.926ZM34.1129 41.7931C34.1129 41.8937 34.071 41.9901 33.9964 42.0613C33.9217 42.1324 33.8205 42.1723 33.7149 42.1723H31.8235C31.771 42.1727 31.7189 42.1632 31.6702 42.1444C31.6215 42.1255 31.5772 42.0977 31.5399 42.0624C31.5026 42.0272 31.473 41.9852 31.4527 41.939C31.4325 41.8928 31.4221 41.8432 31.4221 41.7931V39.9913C31.4221 39.8899 31.4644 39.7926 31.5397 39.7209C31.615 39.6492 31.7171 39.6089 31.8235 39.6089H33.7149C33.7675 39.6089 33.8195 39.6188 33.868 39.638C33.9165 39.6573 33.9606 39.6855 33.9976 39.7211C34.0346 39.7566 34.0638 39.7988 34.0836 39.8452C34.1034 39.8916 34.1134 39.9412 34.1129 39.9913V41.7931ZM36.8922 27.926C36.8922 28.0265 36.8503 28.123 36.7756 28.1941C36.701 28.2652 36.5997 28.3051 36.4942 28.3051H34.5994C34.4938 28.3051 34.3926 28.2652 34.318 28.1941C34.2433 28.123 34.2014 28.0265 34.2014 27.926V26.1209C34.2023 26.0206 34.2445 25.9246 34.3189 25.8537C34.3934 25.7828 34.4941 25.7425 34.5994 25.7417H36.4942C36.5997 25.7417 36.701 25.7816 36.7756 25.8528C36.8503 25.9239 36.8922 26.0203 36.8922 26.1209V27.926ZM39.6714 41.7931C39.6714 41.8937 39.6295 41.9901 39.5549 42.0613C39.4802 42.1324 39.379 42.1723 39.2734 42.1723H37.3786C37.2731 42.1723 37.1719 42.1324 37.0972 42.0613C37.0226 41.9901 36.9806 41.8937 36.9806 41.7931V39.9913C36.9802 39.9412 36.9902 39.8916 37.01 39.8452C37.0298 39.7988 37.059 39.7566 37.096 39.7211C37.133 39.6855 37.177 39.6573 37.2255 39.638C37.2741 39.6188 37.3261 39.6089 37.3786 39.6089H39.2734C39.3793 39.6097 39.4805 39.6504 39.5551 39.722C39.6296 39.7936 39.6714 39.8904 39.6714 39.9913V41.7931ZM42.4507 27.926C42.4507 27.976 42.4403 28.0256 42.4201 28.0718C42.3999 28.118 42.3702 28.16 42.3329 28.1952C42.2956 28.2305 42.2513 28.2583 42.2026 28.2772C42.154 28.2961 42.1018 28.3056 42.0493 28.3051H40.1579C40.0523 28.3051 39.9511 28.2652 39.8765 28.1941C39.8018 28.123 39.7599 28.0265 39.7599 27.926V26.1209C39.7599 26.0203 39.8018 25.9239 39.8765 25.8528C39.9511 25.7816 40.0523 25.7417 40.1579 25.7417H42.0493C42.1552 25.7417 42.2568 25.7815 42.3319 25.8526C42.4071 25.9236 42.4498 26.02 42.4507 26.1209V27.926Z" fill="#E1E1E1"/>
<path d="M34.3636 34.4917L28.33 37.9605C28.2692 37.9956 28.1994 38.0151 28.1278 38.0168C28.0562 38.0185 27.9854 38.0025 27.9227 37.9703C27.86 37.9382 27.8076 37.8911 27.771 37.8339C27.7344 37.7767 27.7148 37.7114 27.7144 37.6448V30.6865C27.7142 30.6196 27.7333 30.5539 27.7696 30.4962C27.806 30.4385 27.8583 30.3909 27.9211 30.3583C27.9839 30.3258 28.055 30.3094 28.1269 30.311C28.1988 30.3126 28.2689 30.332 28.33 30.3673L34.3636 33.8361C34.4266 33.8685 34.4791 33.916 34.5157 33.9736C34.5522 34.0313 34.5715 34.097 34.5715 34.1639C34.5715 34.2308 34.5522 34.2965 34.5157 34.3542C34.4791 34.4118 34.4266 34.4593 34.3636 34.4917Z" fill="#CBCBCB"/>
</svg>
