<svg width="20" height="20" viewBox="0 0 20 20" fill="none" xmlns="http://www.w3.org/2000/svg">
<g clip-path="url(#clip0_17_238)">
<path d="M3.33368 18.1812C3.83583 18.3334 4.51407 18.3334 5.66699 18.3334H14.3337C15.4866 18.3334 16.1648 18.3334 16.667 18.1812M3.33368 18.1812C3.22601 18.1486 3.12644 18.109 3.03202 18.0609C2.56161 17.8212 2.17916 17.4387 1.93948 16.9683C1.66699 16.4335 1.66699 15.7335 1.66699 14.3334V5.66669C1.66699 4.26656 1.66699 3.56649 1.93948 3.03171C2.17916 2.56131 2.56161 2.17885 3.03202 1.93917C3.5668 1.66669 4.26686 1.66669 5.66699 1.66669H14.3337C15.7338 1.66669 16.4339 1.66669 16.9686 1.93917C17.439 2.17885 17.8215 2.56131 18.0612 3.03171C18.3337 3.56649 18.3337 4.26656 18.3337 5.66669V14.3334C18.3337 15.7335 18.3337 16.4335 18.0612 16.9683C17.8215 17.4387 17.439 17.8212 16.9686 18.0609C16.8742 18.109 16.7746 18.1486 16.667 18.1812M3.33368 18.1812C3.33395 17.5068 3.338 17.1499 3.39771 16.8497C3.66073 15.5274 4.69439 14.4938 6.01669 14.2307C6.33869 14.1667 6.7259 14.1667 7.50033 14.1667H12.5003C13.2748 14.1667 13.662 14.1667 13.984 14.2307C15.3063 14.4938 16.3399 15.5274 16.6029 16.8497C16.6627 17.1499 16.6667 17.5068 16.667 18.1812M13.3337 7.91669C13.3337 9.75764 11.8413 11.25 10.0003 11.25C8.15938 11.25 6.66699 9.75764 6.66699 7.91669C6.66699 6.07574 8.15938 4.58335 10.0003 4.58335C11.8413 4.58335 13.3337 6.07574 13.3337 7.91669Z" stroke="black" stroke-width="2" stroke-linecap="round" stroke-linejoin="round"/>
</g>
<defs>
<clipPath id="clip0_17_238">
<rect width="20" height="20" fill="white"/>
</clipPath>
</defs>
</svg>
