<svg width="20" height="20" viewBox="0 0 20 20" fill="none" xmlns="http://www.w3.org/2000/svg">
<path d="M16.6663 10.4166V5.66663C16.6663 4.26649 16.6663 3.56643 16.3939 3.03165C16.1542 2.56124 15.7717 2.17879 15.3013 1.93911C14.7665 1.66663 14.0665 1.66663 12.6663 1.66663H7.33301C5.93288 1.66663 5.23281 1.66663 4.69803 1.93911C4.22763 2.17879 3.84517 2.56124 3.60549 3.03165C3.33301 3.56643 3.33301 4.26649 3.33301 5.66663V14.3333C3.33301 15.7334 3.33301 16.4335 3.60549 16.9683C3.84517 17.4387 4.22763 17.8211 4.69803 18.0608C5.23281 18.3333 5.93288 18.3333 7.33301 18.3333H9.99967M11.6663 9.16663H6.66634M8.33301 12.5H6.66634M13.333 5.83329H6.66634M12.083 15.8333L13.7497 17.5L17.4997 13.75" stroke="black" stroke-width="2" stroke-linecap="round" stroke-linejoin="round"/>
</svg>
