<svg width="165" height="35" viewBox="0 0 165 35" fill="none" xmlns="http://www.w3.org/2000/svg">
<path d="M36.1778 8.86492H30.1647L29.219 2.46886C29.1379 1.78896 28.8049 1.16195 28.2835 0.70684C27.762 0.251733 27.0883 0.000208735 26.3903 0H11.7332C11.0408 0.00178931 10.3725 0.249758 9.85237 0.697921C9.33219 1.14608 8.9954 1.76403 8.90445 2.43716L7.87801 8.86492H1.81636C1.56209 8.8641 1.3105 8.91582 1.07797 9.0167C0.845438 9.11758 0.637184 9.26536 0.46677 9.45041C0.296357 9.63547 0.167606 9.85366 0.0889041 10.0908C0.0102023 10.3279 -0.0166853 10.5786 0.00999177 10.8265L3.29136 33.4149C3.34105 33.8506 3.55272 34.2532 3.88595 34.5456C4.21917 34.838 4.65057 34.9998 5.09773 35H32.6499C33.0967 34.9997 33.5276 34.8378 33.8601 34.5453C34.1927 34.2528 34.4035 33.8503 34.4523 33.4149L38.0044 10.8265C38.0306 10.577 38.0028 10.3249 37.9226 10.0867C37.8425 9.84846 37.7119 9.62955 37.5394 9.44431C37.3669 9.25908 37.1564 9.1117 36.9218 9.01185C36.6871 8.912 36.4336 8.86192 36.1778 8.86492ZM12.4525 3.62206H25.6588L26.4347 8.86492H11.612L12.4525 3.62206ZM7.38904 14.5635C7.38904 14.6865 7.33922 14.8044 7.25055 14.8914C7.16189 14.9783 7.04162 15.0272 6.91623 15.0272H4.66938C4.60695 15.0277 4.54503 15.0161 4.4872 14.993C4.42937 14.97 4.37677 14.9359 4.33244 14.8928C4.2881 14.8497 4.25292 14.7984 4.2289 14.7419C4.20489 14.6854 4.19253 14.6247 4.19253 14.5635V12.3562C4.19359 12.2329 4.2443 12.1149 4.33361 12.0281C4.42293 11.9413 4.54361 11.8925 4.66938 11.8925H6.92027C7.04567 11.8925 7.16593 11.9414 7.2546 12.0283C7.34327 12.1153 7.39308 12.2332 7.39308 12.3562L7.38904 14.5635ZM10.6906 31.5404C10.6906 31.6634 10.6408 31.7813 10.5521 31.8683C10.4635 31.9552 10.3432 32.0041 10.2178 32.0041H7.96691C7.84152 32.0041 7.72126 31.9552 7.63259 31.8683C7.54392 31.7813 7.4941 31.6634 7.4941 31.5404V29.3371C7.4941 29.2137 7.54379 29.0954 7.63234 29.0078C7.72089 28.9202 7.84115 28.8705 7.96691 28.8695H10.2178C10.2802 28.8694 10.3421 28.8816 10.3997 28.9051C10.4573 28.9287 10.5096 28.9632 10.5536 29.0067C10.5975 29.0501 10.6323 29.1017 10.6558 29.1584C10.6793 29.2151 10.6911 29.2759 10.6906 29.3371V31.5404ZM13.9922 14.5833C13.9922 14.7063 13.9424 14.8242 13.8537 14.9112C13.765 14.9981 13.6448 15.047 13.5194 15.047H11.2685C11.1431 15.047 11.0228 14.9981 10.9342 14.9112C10.8455 14.8242 10.7957 14.7063 10.7957 14.5833V12.376C10.7957 12.253 10.8455 12.1351 10.9342 12.0482C11.0228 11.9612 11.1431 11.9124 11.2685 11.9124H13.5194C13.6445 11.9134 13.7641 11.9626 13.8525 12.0493C13.941 12.136 13.9911 12.2534 13.9922 12.376V14.5833ZM17.2938 31.5404C17.2938 31.6016 17.2814 31.6623 17.2574 31.7188C17.2334 31.7753 17.1982 31.8266 17.1539 31.8697C17.1095 31.9128 17.0569 31.9469 16.9991 31.9699C16.9413 31.993 16.8794 32.0046 16.8169 32.0041H14.5701C14.4447 32.0041 14.3244 31.9552 14.2357 31.8683C14.1471 31.7813 14.0973 31.6634 14.0973 31.5404V29.3371C14.0967 29.2759 14.1086 29.2151 14.1321 29.1584C14.1556 29.1017 14.1904 29.0501 14.2343 29.0067C14.2783 28.9632 14.3306 28.9287 14.3882 28.9051C14.4458 28.8816 14.5076 28.8694 14.5701 28.8695H16.8169C16.9434 28.8695 17.0647 28.9187 17.1541 29.0064C17.2435 29.0941 17.2938 29.2131 17.2938 29.3371V31.5404ZM20.5953 14.5833C20.5953 14.6446 20.583 14.7052 20.559 14.7617C20.535 14.8182 20.4998 14.8695 20.4554 14.9126C20.4111 14.9557 20.3585 14.9898 20.3007 15.0128C20.2428 15.0359 20.1809 15.0475 20.1185 15.047H17.8717C17.8092 15.0475 17.7473 15.0359 17.6895 15.0128C17.6316 14.9898 17.579 14.9557 17.5347 14.9126C17.4904 14.8695 17.4552 14.8182 17.4312 14.7617C17.4072 14.7052 17.3948 14.6446 17.3948 14.5833V12.376C17.3959 12.2527 17.4466 12.1348 17.5359 12.0479C17.6252 11.9611 17.7459 11.9124 17.8717 11.9124H20.1185C20.2443 11.9124 20.365 11.9611 20.4543 12.0479C20.5436 12.1348 20.5943 12.2527 20.5953 12.376V14.5833ZM23.8929 31.5404C23.8929 31.6634 23.8431 31.7813 23.7544 31.8683C23.6657 31.9552 23.5455 32.0041 23.4201 32.0041H21.1732C21.1108 32.0046 21.0489 31.993 20.991 31.9699C20.9332 31.9469 20.8806 31.9128 20.8363 31.8697C20.792 31.8266 20.7568 31.7753 20.7327 31.7188C20.7087 31.6623 20.6964 31.6016 20.6964 31.5404V29.3371C20.6964 29.2131 20.7466 29.0941 20.836 29.0064C20.9255 28.9187 21.0468 28.8695 21.1732 28.8695H23.4201C23.4825 28.8694 23.5443 28.8816 23.6019 28.9051C23.6596 28.9287 23.7119 28.9632 23.7558 29.0067C23.7998 29.0501 23.8345 29.1017 23.8581 29.1584C23.8816 29.2151 23.8934 29.2759 23.8929 29.3371V31.5404ZM27.1945 14.5833C27.1945 14.7063 27.1446 14.8242 27.056 14.9112C26.9673 14.9981 26.847 15.047 26.7217 15.047H24.4708C24.3454 15.047 24.2251 14.9981 24.1364 14.9112C24.0478 14.8242 23.998 14.7063 23.998 14.5833V12.376C23.999 12.2534 24.0492 12.136 24.1376 12.0493C24.226 11.9626 24.3457 11.9134 24.4708 11.9124H26.7217C26.847 11.9124 26.9673 11.9612 27.056 12.0482C27.1446 12.1351 27.1945 12.253 27.1945 12.376V14.5833ZM30.496 31.5404C30.496 31.6634 30.4462 31.7813 30.3576 31.8683C30.2689 31.9552 30.1486 32.0041 30.0232 32.0041H27.7723C27.6469 32.0041 27.5267 31.9552 27.438 31.8683C27.3493 31.7813 27.2995 31.6634 27.2995 31.5404V29.3371C27.299 29.2759 27.3108 29.2151 27.3344 29.1584C27.3579 29.1017 27.3926 29.0501 27.4366 29.0067C27.4805 28.9632 27.5328 28.9287 27.5905 28.9051C27.6481 28.8816 27.7099 28.8694 27.7723 28.8695H30.0232C30.149 28.8705 30.2692 28.9202 30.3578 29.0078C30.4464 29.0954 30.496 29.2137 30.496 29.3371V31.5404ZM33.7976 14.5833C33.7976 14.6446 33.7853 14.7052 33.7612 14.7617C33.7372 14.8182 33.702 14.8695 33.6577 14.9126C33.6134 14.9557 33.5608 14.9898 33.5029 15.0128C33.4451 15.0359 33.3832 15.0475 33.3208 15.047H31.0739C30.9485 15.047 30.8283 14.9981 30.7396 14.9112C30.6509 14.8242 30.6011 14.7063 30.6011 14.5833V12.376C30.6011 12.253 30.6509 12.1351 30.7396 12.0482C30.8283 11.9612 30.9485 11.9124 31.0739 11.9124H33.3208C33.4465 11.9124 33.5672 11.9611 33.6565 12.0479C33.7458 12.1348 33.7966 12.2527 33.7976 12.376V14.5833Z" fill="#005184"/>
<path d="M23.9697 22.1009L17.4353 26.0637C17.3694 26.1039 17.2938 26.1261 17.2163 26.1281C17.1387 26.1301 17.0621 26.1117 16.9942 26.075C16.9262 26.0383 16.8695 25.9845 16.8299 25.9191C16.7902 25.8537 16.769 25.7792 16.7685 25.7031V17.7536C16.7683 17.6772 16.789 17.6022 16.8283 17.5363C16.8677 17.4703 16.9244 17.416 16.9924 17.3788C17.0604 17.3416 17.1374 17.3229 17.2153 17.3247C17.2931 17.3265 17.3691 17.3487 17.4353 17.389L23.9697 21.3519C24.038 21.3889 24.0948 21.4432 24.1344 21.509C24.174 21.5749 24.1949 21.6499 24.1949 21.7264C24.1949 21.8029 24.174 21.8779 24.1344 21.9438C24.0948 22.0096 24.038 22.0639 23.9697 22.1009Z" fill="#14C7C9"/>
<path d="M59.8587 11.9282H57.232V9.29285C57.232 9.17724 57.1851 9.06636 57.1018 8.98461C57.0184 8.90286 56.9053 8.85693 56.7874 8.85693H52.5847C52.4668 8.85693 52.3537 8.90286 52.2704 8.98461C52.187 9.06636 52.1402 9.17724 52.1402 9.29285V11.9282H50.5642C50.4463 11.9282 50.3332 11.9741 50.2498 12.0558C50.1665 12.1376 50.1196 12.2485 50.1196 12.3641V15.9782C50.1196 16.0938 50.1665 16.2047 50.2498 16.2864C50.3332 16.3682 50.4463 16.4141 50.5642 16.4141H52.1523V22.9885C52.1523 25.5763 53.4252 27.8826 56.7309 27.8826C57.8229 27.9154 58.9135 27.7817 59.9637 27.4864C60.0501 27.4589 60.1258 27.4063 60.1807 27.3354C60.2356 27.2646 60.267 27.179 60.2709 27.0901V23.9198C60.2703 23.8573 60.2562 23.7957 60.2294 23.739C60.2027 23.6823 60.164 23.6319 60.1158 23.591C60.0676 23.5501 60.0111 23.5198 59.9501 23.502C59.889 23.4842 59.8248 23.4794 59.7617 23.4878C57.527 23.789 57.2198 23.1272 57.2198 20.9159V16.43H59.8587C59.9766 16.43 60.0896 16.384 60.173 16.3023C60.2564 16.2205 60.3032 16.1097 60.3032 15.9941V12.3799C60.3054 12.3214 60.2955 12.263 60.2741 12.2082C60.2528 12.1535 60.2204 12.1036 60.1789 12.0614C60.1374 12.0192 60.0876 11.9857 60.0326 11.9628C59.9776 11.9399 59.9184 11.9281 59.8587 11.9282Z" fill="#005184"/>
<path d="M68.4823 11.9244H64.2877C64.0422 11.9244 63.8431 12.1196 63.8431 12.3604V26.9437C63.8431 27.1844 64.0422 27.3796 64.2877 27.3796H68.4823C68.7278 27.3796 68.9268 27.1844 68.9268 26.9437V12.3604C68.9268 12.1196 68.7278 11.9244 68.4823 11.9244Z" fill="#005184"/>
<path d="M82.3878 3.45154C81.5786 3.45154 80.8025 3.76676 80.2304 4.32787C79.6582 4.88897 79.3367 5.64998 79.3367 6.4435C79.3378 7.2367 79.6596 7.99711 80.2315 8.55798C80.8035 9.11885 81.5789 9.43441 82.3878 9.43546C83.1962 9.43441 83.9712 9.11873 84.5425 8.55774C85.1138 7.99675 85.4347 7.23633 85.4347 6.4435C85.4347 5.65067 85.1138 4.89025 84.5425 4.32926C83.9712 3.76827 83.1962 3.45259 82.3878 3.45154Z" fill="#14C7C9"/>
<path d="M84.481 11.9244H80.2864C80.0409 11.9244 79.8419 12.1196 79.8419 12.3604V26.9437C79.8419 27.1844 80.0409 27.3796 80.2864 27.3796H84.481C84.7265 27.3796 84.9256 27.1844 84.9256 26.9437V12.3604C84.9256 12.1196 84.7265 11.9244 84.481 11.9244Z" fill="#005184"/>
<path d="M98.4027 11.4289C96.6945 11.4224 95.0514 12.0709 93.8241 13.2359V12.3641C93.8241 12.3069 93.8126 12.2502 93.7903 12.1973C93.7679 12.1444 93.7352 12.0964 93.6939 12.0559C93.6526 12.0154 93.6036 11.9833 93.5497 11.9614C93.4957 11.9395 93.4379 11.9282 93.3796 11.9282H89.1849C89.067 11.9282 88.9539 11.9741 88.8706 12.0559C88.7872 12.1376 88.7404 12.2485 88.7404 12.3641V32.5153C88.7404 32.6309 88.7872 32.7418 88.8706 32.8235C88.9539 32.9053 89.067 32.9512 89.1849 32.9512H93.3998C93.5177 32.9512 93.6307 32.9053 93.7141 32.8235C93.7975 32.7418 93.8443 32.6309 93.8443 32.5153V26.0717C95.0703 27.2392 96.7139 27.8894 98.4229 27.8827C102.646 27.8827 106.048 24.2051 106.048 19.6558C106.048 15.1064 102.626 11.4289 98.4027 11.4289ZM97.3843 23.3928C95.4122 23.3928 93.8241 21.7125 93.8241 19.6558C93.8241 17.5991 95.4122 15.9148 97.3843 15.9148C99.3563 15.9148 100.945 17.5991 100.945 19.6558C100.945 21.7125 99.3523 23.3928 97.3843 23.3928Z" fill="#005184"/>
<path d="M134.587 5.94434H130.392C130.274 5.94434 130.161 5.99026 130.078 6.07201C129.994 6.15376 129.947 6.26464 129.947 6.38025L129.923 26.9475C129.923 27.0631 129.97 27.174 130.053 27.2557C130.137 27.3375 130.25 27.3834 130.368 27.3834H134.562C134.68 27.3834 134.793 27.3375 134.877 27.2557C134.96 27.174 135.007 27.0631 135.007 26.9475L135.031 6.38025C135.031 6.26464 134.984 6.15376 134.901 6.07201C134.818 5.99026 134.705 5.94434 134.587 5.94434Z" fill="#005184"/>
<path d="M143.457 11.9244H139.262C139.017 11.9244 138.818 12.1196 138.818 12.3604V26.9437C138.818 27.1844 139.017 27.3796 139.262 27.3796H143.457C143.702 27.3796 143.901 27.1844 143.901 26.9437V12.3604C143.901 12.1196 143.702 11.9244 143.457 11.9244Z" fill="#005184"/>
<path d="M141.359 2.95227C140.959 2.95227 140.562 3.02966 140.192 3.18002C139.822 3.33038 139.485 3.55077 139.202 3.8286C138.919 4.10643 138.694 4.43625 138.541 4.79926C138.387 5.16226 138.308 5.55132 138.308 5.94423C138.308 6.73775 138.63 7.49877 139.202 8.05987C139.774 8.62097 140.55 8.9362 141.359 8.9362C141.76 8.9362 142.157 8.8588 142.527 8.70844C142.897 8.55808 143.234 8.3377 143.517 8.05987C143.8 7.78204 144.025 7.45221 144.178 7.0892C144.332 6.7262 144.411 6.33714 144.411 5.94423C144.411 5.55132 144.332 5.16226 144.178 4.79926C144.025 4.43625 143.8 4.10643 143.517 3.8286C143.234 3.55077 142.897 3.33038 142.527 3.18002C142.157 3.02966 141.76 2.95227 141.359 2.95227Z" fill="#14C7C9"/>
<path d="M157.374 11.4289C155.669 11.424 154.029 12.0724 152.804 13.2359V12.3641C152.804 12.2485 152.757 12.1376 152.674 12.0559C152.59 11.9741 152.477 11.9282 152.359 11.9282H148.161C148.043 11.9282 147.93 11.9741 147.846 12.0559C147.763 12.1376 147.716 12.2485 147.716 12.3641V32.5153C147.716 32.6309 147.763 32.7417 147.846 32.8235C147.93 32.9052 148.043 32.9512 148.161 32.9512H152.355C152.473 32.9512 152.586 32.9052 152.67 32.8235C152.753 32.7417 152.8 32.6309 152.8 32.5153V26.0716C154.025 27.2386 155.667 27.8887 157.374 27.8827C161.601 27.8827 165 24.2051 165 19.6558C165 15.1064 161.601 11.4289 157.374 11.4289ZM156.36 23.3927C154.388 23.3927 152.8 21.7125 152.8 19.6558C152.8 17.599 154.388 15.9148 156.36 15.9148C158.332 15.9148 159.916 17.599 159.916 19.6558C159.916 21.7125 158.328 23.3927 156.36 23.3927Z" fill="#005184"/>
<path d="M119.622 10.4303C121.094 10.3989 122.534 10.8555 123.708 11.7262C123.756 11.7607 123.811 11.7855 123.869 11.7988C123.927 11.8122 123.988 11.8139 124.046 11.8039C124.105 11.794 124.161 11.7724 124.212 11.7407C124.262 11.7089 124.305 11.6676 124.338 11.6192L126.428 8.60341C126.492 8.51252 126.518 8.4011 126.5 8.29203C126.483 8.18296 126.424 8.08452 126.335 8.01691C124.41 6.67312 122.107 5.9489 119.744 5.94434C113.278 5.94434 108.053 10.8662 108.053 16.9135C108.053 22.9609 113.306 27.8827 119.744 27.8827C122.104 27.8686 124.403 27.1377 126.323 25.7904C126.412 25.7221 126.471 25.6226 126.488 25.5126C126.504 25.4026 126.477 25.2906 126.412 25.1999L124.33 22.196C124.297 22.1477 124.254 22.1065 124.205 22.0747C124.155 22.043 124.099 22.0215 124.04 22.0116C123.982 22.0016 123.922 22.0033 123.864 22.0166C123.806 22.0299 123.752 22.0545 123.704 22.089C122.564 22.9358 121.174 23.3937 119.744 23.3928C118.835 23.3931 117.935 23.2094 117.102 22.8532C116.269 22.4971 115.519 21.9762 114.901 21.323C114.282 20.6698 113.807 19.8985 113.507 19.0573C113.206 18.2161 113.085 17.323 113.153 16.434C113.284 14.8262 114.018 13.323 115.212 12.2144C116.407 11.1058 117.978 10.4702 119.622 10.4303Z" fill="#005184"/>
<path d="M71.7152 11.9599C71.6613 11.9265 71.5991 11.9079 71.5353 11.9061C71.4715 11.9044 71.4084 11.9195 71.3526 11.9499C71.2968 11.9803 71.2504 12.0249 71.2182 12.0789C71.186 12.133 71.1692 12.1945 71.1697 12.2571V18.7641C71.1705 18.8262 71.1881 18.887 71.2206 18.9403C71.253 18.9936 71.2993 19.0376 71.3546 19.0678C71.41 19.0979 71.4725 19.1132 71.5358 19.1121C71.5991 19.111 71.661 19.0935 71.7152 19.0614L77.0656 15.8039C77.1166 15.7725 77.1585 15.7289 77.1876 15.6773C77.2167 15.6257 77.232 15.5676 77.232 15.5087C77.232 15.4497 77.2167 15.3916 77.1876 15.34C77.1585 15.2884 77.1166 15.2448 77.0656 15.2134L71.7152 11.9599Z" fill="#14C7C9"/>
</svg>
