<svg width="39" height="35" viewBox="0 0 39 35" fill="none" xmlns="http://www.w3.org/2000/svg">
<path d="M36.1778 8.86492H30.1647L29.219 2.46886C29.1379 1.78896 28.8049 1.16195 28.2835 0.70684C27.762 0.251733 27.0883 0.000208735 26.3903 0H11.7332C11.0408 0.00178931 10.3725 0.249758 9.85237 0.697921C9.33219 1.14608 8.9954 1.76403 8.90445 2.43716L7.87801 8.86492H1.81636C1.56209 8.8641 1.3105 8.91582 1.07797 9.0167C0.845438 9.11758 0.637184 9.26536 0.46677 9.45041C0.296357 9.63547 0.167606 9.85366 0.0889041 10.0908C0.0102023 10.3279 -0.0166853 10.5786 0.00999177 10.8265L3.29136 33.4149C3.34105 33.8506 3.55272 34.2532 3.88595 34.5456C4.21917 34.838 4.65057 34.9998 5.09773 35H32.6499C33.0967 34.9997 33.5276 34.8378 33.8601 34.5453C34.1927 34.2528 34.4035 33.8503 34.4523 33.4149L38.0044 10.8265C38.0306 10.577 38.0028 10.3249 37.9226 10.0867C37.8425 9.84846 37.7119 9.62955 37.5394 9.44431C37.3669 9.25908 37.1564 9.1117 36.9218 9.01185C36.6871 8.912 36.4336 8.86192 36.1778 8.86492ZM12.4525 3.62206H25.6588L26.4347 8.86492H11.612L12.4525 3.62206ZM7.38904 14.5635C7.38904 14.6865 7.33922 14.8044 7.25055 14.8914C7.16189 14.9783 7.04162 15.0272 6.91623 15.0272H4.66938C4.60695 15.0277 4.54503 15.0161 4.4872 14.993C4.42937 14.97 4.37677 14.9359 4.33244 14.8928C4.2881 14.8497 4.25292 14.7984 4.2289 14.7419C4.20489 14.6854 4.19253 14.6247 4.19253 14.5635V12.3562C4.19359 12.2329 4.2443 12.1149 4.33361 12.0281C4.42293 11.9413 4.54361 11.8925 4.66938 11.8925H6.92027C7.04567 11.8925 7.16593 11.9414 7.2546 12.0283C7.34327 12.1153 7.39308 12.2332 7.39308 12.3562L7.38904 14.5635ZM10.6906 31.5404C10.6906 31.6634 10.6408 31.7813 10.5521 31.8683C10.4635 31.9552 10.3432 32.0041 10.2178 32.0041H7.96691C7.84152 32.0041 7.72126 31.9552 7.63259 31.8683C7.54392 31.7813 7.4941 31.6634 7.4941 31.5404V29.3371C7.4941 29.2137 7.54378 29.0954 7.63234 29.0078C7.72089 28.9202 7.84115 28.8705 7.96691 28.8695H10.2178C10.2802 28.8694 10.3421 28.8816 10.3997 28.9051C10.4573 28.9287 10.5096 28.9632 10.5536 29.0067C10.5975 29.0501 10.6323 29.1017 10.6558 29.1584C10.6793 29.2151 10.6911 29.2759 10.6906 29.3371V31.5404ZM13.9922 14.5833C13.9922 14.7063 13.9424 14.8242 13.8537 14.9112C13.765 14.9981 13.6448 15.047 13.5194 15.047H11.2685C11.1431 15.047 11.0228 14.9981 10.9342 14.9112C10.8455 14.8242 10.7957 14.7063 10.7957 14.5833V12.376C10.7957 12.253 10.8455 12.1351 10.9342 12.0482C11.0228 11.9612 11.1431 11.9124 11.2685 11.9124H13.5194C13.6445 11.9134 13.7641 11.9626 13.8525 12.0493C13.941 12.136 13.9911 12.2534 13.9922 12.376V14.5833ZM17.2938 31.5404C17.2938 31.6016 17.2814 31.6623 17.2574 31.7188C17.2334 31.7753 17.1982 31.8266 17.1539 31.8697C17.1095 31.9128 17.0569 31.9469 16.9991 31.9699C16.9413 31.993 16.8794 32.0046 16.8169 32.0041H14.5701C14.4447 32.0041 14.3244 31.9552 14.2357 31.8683C14.1471 31.7813 14.0973 31.6634 14.0973 31.5404V29.3371C14.0967 29.2759 14.1086 29.2151 14.1321 29.1584C14.1556 29.1017 14.1904 29.0501 14.2343 29.0067C14.2783 28.9632 14.3306 28.9287 14.3882 28.9051C14.4458 28.8816 14.5076 28.8694 14.5701 28.8695H16.8169C16.9434 28.8695 17.0647 28.9187 17.1541 29.0064C17.2435 29.0941 17.2938 29.2131 17.2938 29.3371V31.5404ZM20.5953 14.5833C20.5953 14.6446 20.583 14.7052 20.559 14.7617C20.535 14.8182 20.4998 14.8695 20.4554 14.9126C20.4111 14.9557 20.3585 14.9898 20.3007 15.0128C20.2428 15.0359 20.1809 15.0475 20.1185 15.047H17.8717C17.8092 15.0475 17.7473 15.0359 17.6895 15.0128C17.6316 14.9898 17.579 14.9557 17.5347 14.9126C17.4904 14.8695 17.4552 14.8182 17.4312 14.7617C17.4072 14.7052 17.3948 14.6446 17.3948 14.5833V12.376C17.3959 12.2527 17.4466 12.1348 17.5359 12.0479C17.6252 11.9611 17.7459 11.9124 17.8717 11.9124H20.1185C20.2443 11.9124 20.365 11.9611 20.4543 12.0479C20.5436 12.1348 20.5943 12.2527 20.5953 12.376V14.5833ZM23.8929 31.5404C23.8929 31.6634 23.8431 31.7813 23.7544 31.8683C23.6657 31.9552 23.5455 32.0041 23.4201 32.0041H21.1732C21.1108 32.0046 21.0489 31.993 20.991 31.9699C20.9332 31.9469 20.8806 31.9128 20.8363 31.8697C20.792 31.8266 20.7568 31.7753 20.7327 31.7188C20.7087 31.6623 20.6964 31.6016 20.6964 31.5404V29.3371C20.6964 29.2131 20.7466 29.0941 20.836 29.0064C20.9255 28.9187 21.0468 28.8695 21.1732 28.8695H23.4201C23.4825 28.8694 23.5443 28.8816 23.6019 28.9051C23.6596 28.9287 23.7119 28.9632 23.7558 29.0067C23.7998 29.0501 23.8345 29.1017 23.8581 29.1584C23.8816 29.2151 23.8934 29.2759 23.8929 29.3371V31.5404ZM27.1945 14.5833C27.1945 14.7063 27.1446 14.8242 27.056 14.9112C26.9673 14.9981 26.847 15.047 26.7217 15.047H24.4708C24.3454 15.047 24.2251 14.9981 24.1364 14.9112C24.0478 14.8242 23.998 14.7063 23.998 14.5833V12.376C23.999 12.2534 24.0492 12.136 24.1376 12.0493C24.226 11.9626 24.3457 11.9134 24.4708 11.9124H26.7217C26.847 11.9124 26.9673 11.9612 27.056 12.0482C27.1446 12.1351 27.1945 12.253 27.1945 12.376V14.5833ZM30.496 31.5404C30.496 31.6634 30.4462 31.7813 30.3576 31.8683C30.2689 31.9552 30.1486 32.0041 30.0232 32.0041H27.7723C27.6469 32.0041 27.5267 31.9552 27.438 31.8683C27.3493 31.7813 27.2995 31.6634 27.2995 31.5404V29.3371C27.299 29.2759 27.3108 29.2151 27.3344 29.1584C27.3579 29.1017 27.3926 29.0501 27.4366 29.0067C27.4805 28.9632 27.5328 28.9287 27.5905 28.9051C27.6481 28.8816 27.7099 28.8694 27.7723 28.8695H30.0232C30.149 28.8705 30.2692 28.9202 30.3578 29.0078C30.4464 29.0954 30.496 29.2137 30.496 29.3371V31.5404ZM33.7976 14.5833C33.7976 14.6446 33.7853 14.7052 33.7612 14.7617C33.7372 14.8182 33.702 14.8695 33.6577 14.9126C33.6134 14.9557 33.5608 14.9898 33.5029 15.0128C33.4451 15.0359 33.3832 15.0475 33.3208 15.047H31.0739C30.9485 15.047 30.8283 14.9981 30.7396 14.9112C30.6509 14.8242 30.6011 14.7063 30.6011 14.5833V12.376C30.6011 12.253 30.6509 12.1351 30.7396 12.0482C30.8283 11.9612 30.9485 11.9124 31.0739 11.9124H33.3208C33.4465 11.9124 33.5672 11.9611 33.6565 12.0479C33.7458 12.1348 33.7965 12.2527 33.7976 12.376V14.5833Z" fill="#005184"/>
<path d="M23.9698 22.1009L17.4353 26.0637C17.3695 26.1039 17.2939 26.1261 17.2163 26.1281C17.1388 26.1301 17.0621 26.1117 16.9942 26.075C16.9263 26.0383 16.8696 25.9845 16.8299 25.9191C16.7903 25.8537 16.7691 25.7792 16.7686 25.7031V17.7536C16.7684 17.6772 16.789 17.6022 16.8284 17.5363C16.8678 17.4703 16.9244 17.416 16.9925 17.3788C17.0605 17.3416 17.1374 17.3229 17.2153 17.3247C17.2932 17.3265 17.3692 17.3487 17.4353 17.389L23.9698 21.3519C24.038 21.3889 24.0949 21.4432 24.1345 21.509C24.1741 21.5749 24.1949 21.6499 24.1949 21.7264C24.1949 21.8029 24.1741 21.8779 24.1345 21.9438C24.0949 22.0096 24.038 22.0639 23.9698 22.1009Z" fill="#14C7C9"/>
</svg>
