<svg width="20" height="20" viewBox="0 0 20 20" fill="none" xmlns="http://www.w3.org/2000/svg">
<g clip-path="url(#clip0_16_474)">
<path d="M1.66699 1.66663H2.75546C2.96048 1.66663 3.06299 1.66663 3.14548 1.70433C3.21817 1.73755 3.27978 1.79098 3.32295 1.85825C3.37194 1.93458 3.38644 2.03606 3.41543 2.23901L3.80985 4.99996M3.80985 4.99996L4.68643 11.4428C4.79766 12.2604 4.85328 12.6692 5.04874 12.9769C5.22097 13.2481 5.46789 13.4637 5.75979 13.5978C6.09104 13.75 6.50361 13.75 7.32875 13.75H14.4603C15.2458 13.75 15.6385 13.75 15.9595 13.6086C16.2424 13.484 16.4852 13.2832 16.6606 13.0285C16.8594 12.7396 16.9329 12.3538 17.0799 11.5823L18.1829 5.79137C18.2346 5.5198 18.2605 5.38401 18.223 5.27788C18.1901 5.18477 18.1253 5.10636 18.0399 5.05664C17.9427 4.99996 17.8045 4.99996 17.528 4.99996H3.80985ZM8.33366 17.5C8.33366 17.9602 7.96056 18.3333 7.50033 18.3333C7.04009 18.3333 6.66699 17.9602 6.66699 17.5C6.66699 17.0397 7.04009 16.6666 7.50033 16.6666C7.96056 16.6666 8.33366 17.0397 8.33366 17.5ZM15.0003 17.5C15.0003 17.9602 14.6272 18.3333 14.167 18.3333C13.7068 18.3333 13.3337 17.9602 13.3337 17.5C13.3337 17.0397 13.7068 16.6666 14.167 16.6666C14.6272 16.6666 15.0003 17.0397 15.0003 17.5Z" stroke="black" stroke-width="2" stroke-linecap="round" stroke-linejoin="round"/>
</g>
<defs>
<clipPath id="clip0_16_474">
<rect width="20" height="20" fill="white"/>
</clipPath>
</defs>
</svg>
