<svg width="378" height="384" viewBox="0 0 378 384" fill="none" xmlns="http://www.w3.org/2000/svg">
<rect width="378" height="384" rx="32" fill="#DEFBFC"/>
<g opacity="0.3">
<path d="M256.833 290.999C256.833 289.452 256.833 288.679 256.898 288.027C257.52 281.742 262.492 276.771 268.777 276.148C269.428 276.083 270.244 276.083 271.874 276.083C272.503 276.083 272.817 276.083 273.084 276.067C276.49 275.861 279.473 273.711 280.745 270.545C280.845 270.297 280.938 270.017 281.125 269.458C281.311 268.899 281.404 268.62 281.504 268.372C282.777 265.206 285.759 263.056 289.166 262.849C289.432 262.833 289.727 262.833 290.316 262.833H311.683C312.272 262.833 312.567 262.833 312.834 262.849C316.24 263.056 319.223 265.206 320.495 268.372C320.595 268.62 320.688 268.899 320.875 269.458C321.061 270.017 321.154 270.297 321.254 270.545C322.527 273.711 325.509 275.861 328.916 276.067C329.182 276.083 329.497 276.083 330.125 276.083C331.756 276.083 332.571 276.083 333.223 276.148C339.507 276.771 344.479 281.742 345.102 288.027C345.166 288.679 345.166 289.452 345.166 290.999V325.55C345.166 332.971 345.166 336.681 343.722 339.515C342.452 342.008 340.425 344.035 337.932 345.306C335.097 346.75 331.387 346.75 323.966 346.75H278.033C270.612 346.75 266.902 346.75 264.068 345.306C261.574 344.035 259.547 342.008 258.277 339.515C256.833 336.681 256.833 332.971 256.833 325.55V290.999Z" stroke="#14C7C9" stroke-width="8.83333" stroke-linecap="round" stroke-linejoin="round"/>
<path d="M301 326.875C310.757 326.875 318.666 318.965 318.666 309.208C318.666 299.451 310.757 291.542 301 291.542C291.243 291.542 283.333 299.451 283.333 309.208C283.333 318.965 291.243 326.875 301 326.875Z" stroke="#14C7C9" stroke-width="8.83333" stroke-linecap="round" stroke-linejoin="round"/>
</g>
</svg>
