<svg width="163" height="35" viewBox="0 0 163 35" fill="none" xmlns="http://www.w3.org/2000/svg">
<path d="M35.5295 8.85991H29.6244L28.6958 2.46747C28.6152 1.78829 28.288 1.16213 27.7761 0.707443C27.2642 0.252755 26.6031 0.0010697 25.9178 0H11.5241C10.8441 0.0017883 10.1879 0.249622 9.67706 0.697532C9.16623 1.14544 8.83549 1.76304 8.74618 2.43579L7.73818 8.85991H1.78545C1.53407 8.85941 1.28543 8.91199 1.05586 9.0142C0.826294 9.11642 0.620996 9.26596 0.453455 9.45299C0.285914 9.64003 0.159923 9.86032 0.0837585 10.0994C0.00759348 10.3385 -0.0170212 10.591 0.0115323 10.8402L3.23394 33.4157C3.28189 33.8516 3.48952 34.2545 3.81694 34.5469C4.14436 34.8393 4.56848 35.0007 5.00786 35H32.065C32.5037 34.9997 32.9269 34.8379 33.2534 34.5456C33.58 34.2532 33.7871 33.851 33.835 33.4157L37.3233 10.8402C37.352 10.5893 37.3269 10.3351 37.2496 10.0946C37.1722 9.85417 37.0445 9.63288 36.8748 9.44552C36.7051 9.25817 36.4973 9.10904 36.2654 9.00806C36.0334 8.90709 35.7825 8.85659 35.5295 8.85991ZM12.2305 3.62398H25.1995L25.9615 8.85991H11.4051L12.2305 3.62398ZM20.227 12.3373V14.5394C20.227 14.6006 20.2149 14.6612 20.1913 14.7177C20.1677 14.7742 20.1332 14.8254 20.0896 14.8685C20.0461 14.9116 19.9944 14.9456 19.9376 14.9687C19.8808 14.9917 19.82 15.0033 19.7587 15.0028H17.5523C17.4909 15.0033 17.4301 14.9917 17.3733 14.9687C17.3166 14.9456 17.2649 14.9116 17.2214 14.8685C17.1778 14.8254 17.1433 14.7742 17.1197 14.7177C17.0961 14.6612 17.084 14.6006 17.084 14.5394V12.3373C17.085 12.2141 17.1348 12.0962 17.2225 12.0094C17.3102 11.9226 17.4287 11.8739 17.5523 11.8739H19.7587C19.8212 11.8739 19.8831 11.8864 19.9407 11.9106C19.9983 11.9348 20.0505 11.9703 20.0941 12.015C20.1378 12.0597 20.172 12.1126 20.1948 12.1707C20.2177 12.2288 20.2286 12.2908 20.227 12.3532V12.3373ZM7.25799 14.5394C7.25799 14.6623 7.20907 14.7802 7.122 14.8671C7.03492 14.954 6.91682 15.0028 6.79368 15.0028H4.5872C4.52589 15.0033 4.46509 14.9917 4.40829 14.9687C4.3515 14.9456 4.29985 14.9116 4.25631 14.8685C4.21278 14.8254 4.17822 14.7742 4.15464 14.7177C4.13106 14.6612 4.11892 14.6006 4.11892 14.5394V12.3373C4.11892 12.2134 4.16825 12.0945 4.25607 12.0069C4.34389 11.9192 4.463 11.87 4.5872 11.87H6.79765C6.85896 11.87 6.91966 11.8821 6.97625 11.9056C7.03285 11.9292 7.08421 11.9636 7.12738 12.0071C7.17055 12.0506 7.20466 12.1021 7.22776 12.1588C7.25086 12.2155 7.26248 12.2762 7.26196 12.3373L7.25799 14.5394ZM10.5002 31.4869C10.5008 31.5481 10.4891 31.6088 10.4661 31.6655C10.443 31.7222 10.4088 31.7737 10.3657 31.8171C10.3225 31.8606 10.2711 31.8951 10.2145 31.9186C10.1579 31.9422 10.0972 31.9543 10.0359 31.9543H7.82548C7.70198 31.9532 7.58389 31.9035 7.49692 31.816C7.40996 31.7285 7.36117 31.6102 7.36117 31.4869V29.3007C7.36117 29.1778 7.41009 29.0599 7.49717 28.973C7.58424 28.8861 7.70234 28.8373 7.82548 28.8373H10.0359C10.1591 28.8373 10.2772 28.8861 10.3643 28.973C10.4513 29.0599 10.5002 29.1778 10.5002 29.3007V31.4869ZM13.7425 14.5394C13.7425 14.6623 13.6936 14.7802 13.6065 14.8671C13.5194 14.954 13.4013 15.0028 13.2782 15.0028H11.0677C10.9446 15.0028 10.8265 14.954 10.7394 14.8671C10.6523 14.7802 10.6034 14.6623 10.6034 14.5394V12.3373C10.6029 12.2762 10.6145 12.2155 10.6376 12.1588C10.6607 12.1021 10.6948 12.0506 10.738 12.0071C10.7812 11.9636 10.8325 11.9292 10.8891 11.9056C10.9457 11.8821 11.0064 11.87 11.0677 11.87H13.2782C13.4017 11.871 13.5198 11.9207 13.6068 12.0083C13.6937 12.0958 13.7425 12.2141 13.7425 12.3373V14.5394ZM16.9848 31.4869C16.9848 31.6109 16.9354 31.7297 16.8476 31.8174C16.7598 31.905 16.6407 31.9543 16.5165 31.9543H14.31C14.2487 31.9543 14.188 31.9422 14.1314 31.9186C14.0748 31.8951 14.0234 31.8606 13.9803 31.8171C13.9371 31.7737 13.903 31.7222 13.8799 31.6655C13.8568 31.6088 13.8452 31.5481 13.8457 31.4869V29.3007C13.8457 29.1778 13.8946 29.0599 13.9817 28.973C14.0688 28.8861 14.1868 28.8373 14.31 28.8373H16.5165C16.5778 28.8368 16.6386 28.8484 16.6954 28.8714C16.7522 28.8945 16.8038 28.9285 16.8474 28.9716C16.8909 29.0147 16.9255 29.0659 16.949 29.1224C16.9726 29.1789 16.9848 29.2395 16.9848 29.3007V31.4869ZM23.4653 31.4869C23.4658 31.5481 23.4542 31.6088 23.4311 31.6655C23.408 31.7222 23.3739 31.7737 23.3307 31.8171C23.2875 31.8606 23.2362 31.8951 23.1796 31.9186C23.123 31.9422 23.0623 31.9543 23.001 31.9543H20.7945C20.6703 31.9543 20.5512 31.905 20.4634 31.8174C20.3756 31.7297 20.3262 31.6109 20.3262 31.4869V29.3007C20.3262 29.2395 20.3384 29.1789 20.3619 29.1224C20.3855 29.0659 20.4201 29.0147 20.4636 28.9716C20.5072 28.9285 20.5588 28.8945 20.6156 28.8714C20.6724 28.8484 20.7332 28.8368 20.7945 28.8373H23.001C23.1241 28.8373 23.2422 28.8861 23.3293 28.973C23.4164 29.0599 23.4653 29.1778 23.4653 29.3007V31.4869ZM23.5407 22.0725L17.1237 26.0332C17.059 26.0733 16.9847 26.0955 16.9086 26.0974C16.8324 26.0994 16.7572 26.0811 16.6905 26.0444C16.6238 26.0077 16.5681 25.9539 16.5291 25.8886C16.4902 25.8232 16.4694 25.7488 16.4689 25.6727V17.7555C16.4699 17.6796 16.491 17.6054 16.5299 17.5402C16.5689 17.4751 16.6243 17.4213 16.6907 17.3844C16.7571 17.3474 16.8321 17.3286 16.9081 17.3298C16.9841 17.3309 17.0584 17.3521 17.1237 17.3911L23.5407 21.3517C23.6059 21.3887 23.6601 21.4423 23.6978 21.507C23.7355 21.5717 23.7553 21.6452 23.7553 21.72C23.7553 21.7949 23.7355 21.8684 23.6978 21.9331C23.6601 21.9978 23.6059 22.0514 23.5407 22.0884V22.0725ZM26.7155 14.5474C26.7155 14.6703 26.6666 14.7881 26.5795 14.875C26.4924 14.9619 26.3743 15.0108 26.2512 15.0108H24.0407C23.9176 15.0108 23.7995 14.9619 23.7124 14.875C23.6253 14.7881 23.5764 14.6703 23.5764 14.5474V12.3453C23.5764 12.222 23.6252 12.1037 23.7122 12.0162C23.7991 11.9286 23.9172 11.8789 24.0407 11.8779H26.2432C26.3046 11.8779 26.3653 11.89 26.4218 11.9135C26.4784 11.9371 26.5298 11.9716 26.573 12.015C26.6161 12.0585 26.6503 12.11 26.6734 12.1667C26.6965 12.2234 26.7081 12.2841 26.7076 12.3453L26.7155 14.5474ZM29.9577 31.4948C29.9578 31.6181 29.909 31.7364 29.822 31.8239C29.735 31.9114 29.6169 31.9611 29.4934 31.9622H27.2751C27.2137 31.9622 27.153 31.9501 27.0964 31.9266C27.0398 31.903 26.9885 31.8685 26.9453 31.8251C26.9022 31.7816 26.868 31.7301 26.8449 31.6734C26.8218 31.6167 26.8102 31.556 26.8107 31.4948V29.3007C26.8107 29.1778 26.8597 29.0599 26.9467 28.973C27.0338 28.8861 27.1519 28.8373 27.2751 28.8373H29.4855C29.6086 28.8373 29.7267 28.8861 29.8138 28.973C29.9009 29.0599 29.9498 29.1778 29.9498 29.3007L29.9577 31.4948ZM33.2 14.5474C33.2 14.6085 33.1879 14.6691 33.1643 14.7256C33.1407 14.7821 33.1061 14.8334 33.0626 14.8764C33.0191 14.9195 32.9674 14.9536 32.9106 14.9766C32.8538 14.9997 32.793 15.0113 32.7317 15.0108H30.5252C30.4021 15.0108 30.284 14.9619 30.1969 14.875C30.1098 14.7881 30.0609 14.6703 30.0609 14.5474V12.3453C30.0604 12.2841 30.072 12.2234 30.0951 12.1667C30.1182 12.11 30.1523 12.0585 30.1955 12.015C30.2387 11.9716 30.29 11.9371 30.3466 11.9135C30.4032 11.89 30.4639 11.8779 30.5252 11.8779H32.7317C32.8559 11.8779 32.975 11.9271 33.0628 12.0148C33.1507 12.1024 33.2 12.2213 33.2 12.3453V14.5474Z" fill="black"/>
<path d="M58.7849 11.9212H56.2054V9.29138C56.2054 9.17584 56.1594 9.06502 56.0775 8.98331C55.9956 8.90161 55.8846 8.85571 55.7688 8.85571H51.6416C51.5258 8.85571 51.4148 8.90161 51.3329 8.98331C51.2511 9.06502 51.2051 9.17584 51.2051 9.29138V11.9212H49.6574C49.5416 11.9212 49.4306 11.9671 49.3487 12.0488C49.2668 12.1305 49.2208 12.2414 49.2208 12.3569V15.969C49.2208 16.0262 49.2321 16.0828 49.2541 16.1357C49.276 16.1886 49.3081 16.2366 49.3487 16.2771C49.3892 16.3175 49.4373 16.3496 49.4903 16.3715C49.5433 16.3934 49.6 16.4047 49.6574 16.4047H51.217V22.9634C51.217 25.5497 52.467 27.8548 55.7133 27.8548C56.7857 27.8875 57.8567 27.7539 58.8881 27.4587C58.9731 27.4318 59.0478 27.3793 59.1018 27.3084C59.1558 27.2375 59.1865 27.1517 59.1897 27.0627V23.8942C59.1892 23.8319 59.1753 23.7704 59.1491 23.7139C59.1228 23.6574 59.0846 23.6072 59.0372 23.5667C58.9898 23.5262 58.9343 23.4962 58.8743 23.4789C58.8144 23.4616 58.7514 23.4574 58.6896 23.4664C56.4951 23.7674 56.1935 23.1021 56.1935 20.896V16.4047H58.7849C58.9007 16.4047 59.0117 16.3588 59.0936 16.2771C59.1754 16.1953 59.2214 16.0845 59.2214 15.969V12.3569C59.2214 12.2414 59.1754 12.1305 59.0936 12.0488C59.0117 11.9671 58.9007 11.9212 58.7849 11.9212Z" fill="black"/>
<path d="M67.2536 11.9214H63.1344C62.8933 11.9214 62.6978 12.1164 62.6978 12.357V26.9321C62.6978 27.1727 62.8933 27.3678 63.1344 27.3678H67.2536C67.4947 27.3678 67.6902 27.1727 67.6902 26.9321V12.357C67.6902 12.1164 67.4947 11.9214 67.2536 11.9214Z" fill="black"/>
<path d="M80.9093 3.44947C80.3165 3.44868 79.7368 3.62338 79.2436 3.95148C78.7503 4.27958 78.3657 4.74632 78.1383 5.29265C77.9109 5.83898 77.851 6.44035 77.9662 7.02067C78.0813 7.60099 78.3664 8.13417 78.7852 8.55276C79.2041 8.97135 79.738 9.25655 80.3193 9.37225C80.9006 9.48795 81.5033 9.42897 82.051 9.20276C82.5987 8.97655 83.0669 8.59327 83.3963 8.10144C83.7257 7.60961 83.9015 7.03132 83.9015 6.43973C83.9015 5.64735 83.5864 4.88736 83.0253 4.32669C82.4643 3.76602 81.7032 3.45052 80.9093 3.44947Z" fill="black"/>
<path d="M82.9649 11.9214H78.8456C78.6046 11.9214 78.4091 12.1164 78.4091 12.357V26.9321C78.4091 27.1727 78.6046 27.3678 78.8456 27.3678H82.9649C83.206 27.3678 83.4015 27.1727 83.4015 26.9321V12.357C83.4015 12.1164 83.206 11.9214 82.9649 11.9214Z" fill="black"/>
<path d="M96.6364 11.4219C94.9589 11.4154 93.3453 12.0636 92.1401 13.228V12.3566C92.1401 12.2994 92.1288 12.2428 92.1068 12.1899C92.0849 12.1371 92.0527 12.089 92.0122 12.0486C91.9717 12.0081 91.9235 11.976 91.8706 11.9541C91.8176 11.9322 91.7609 11.921 91.7035 11.921H87.5842C87.4685 11.921 87.3574 11.9669 87.2756 12.0486C87.1937 12.1303 87.1477 12.2411 87.1477 12.3566V32.4964C87.1477 32.6119 87.1937 32.7228 87.2756 32.8045C87.3574 32.8862 87.4685 32.932 87.5842 32.932H91.7234C91.8391 32.932 91.9502 32.8862 92.0321 32.8045C92.1139 32.7228 92.1599 32.6119 92.1599 32.4964V26.0604C93.3652 27.2248 94.9787 27.8729 96.6562 27.8664C100.803 27.8664 104.145 24.191 104.145 19.6442C104.145 15.0974 100.783 11.4219 96.6364 11.4219ZM95.6363 23.383C93.6997 23.383 92.1401 21.6997 92.1401 19.6442C92.1401 17.5886 93.6997 15.9053 95.6363 15.9053C97.5729 15.9053 99.1325 17.5886 99.1325 19.6442C99.1325 21.6997 97.569 23.383 95.6363 23.383Z" fill="black"/>
<path d="M132.17 5.93315H128.051C127.935 5.93315 127.824 5.97905 127.742 6.06075C127.66 6.14245 127.614 6.25327 127.614 6.36882L127.591 26.9244C127.591 27.04 127.637 27.1508 127.718 27.2325C127.8 27.3142 127.911 27.3601 128.027 27.3601H132.146C132.205 27.3622 132.263 27.3525 132.318 27.3316C132.373 27.3106 132.423 27.2789 132.465 27.2382C132.508 27.1976 132.541 27.1488 132.564 27.0949C132.587 27.041 132.599 26.983 132.599 26.9244L132.623 6.36882C132.623 6.31025 132.611 6.25226 132.588 6.19835C132.565 6.14443 132.531 6.09568 132.489 6.05501C132.447 6.01434 132.397 5.98259 132.342 5.96165C132.287 5.94071 132.229 5.93102 132.17 5.93315Z" fill="black"/>
<path d="M140.881 11.9214H136.762C136.521 11.9214 136.325 12.1164 136.325 12.357V26.9321C136.325 27.1727 136.521 27.3678 136.762 27.3678H140.881C141.122 27.3678 141.318 27.1727 141.318 26.9321V12.357C141.318 12.1164 141.122 11.9214 140.881 11.9214Z" fill="black"/>
<path d="M138.821 2.95068C138.229 2.95068 137.65 3.12606 137.157 3.45463C136.664 3.78321 136.28 4.25022 136.053 4.79662C135.826 5.34302 135.767 5.94426 135.883 6.52432C135.998 7.10437 136.284 7.63719 136.703 8.05538C137.122 8.47358 137.656 8.75838 138.237 8.87376C138.818 8.98914 139.421 8.92993 139.968 8.7036C140.515 8.47727 140.983 8.09401 141.313 7.60226C141.642 7.11051 141.818 6.53236 141.818 5.94095C141.818 5.54826 141.74 5.15942 141.59 4.79662C141.439 4.43383 141.218 4.10418 140.94 3.82651C140.662 3.54884 140.332 3.32858 139.968 3.1783C139.604 3.02803 139.215 2.95068 138.821 2.95068Z" fill="black"/>
<path d="M154.548 11.4219C152.874 11.4171 151.263 12.0651 150.06 13.228V12.3566C150.06 12.2411 150.014 12.1302 149.932 12.0485C149.85 11.9668 149.739 11.9209 149.624 11.9209H145.5C145.385 11.9209 145.274 11.9668 145.192 12.0485C145.11 12.1302 145.064 12.2411 145.064 12.3566V32.4964C145.064 32.6119 145.11 32.7227 145.192 32.8044C145.274 32.8861 145.385 32.932 145.5 32.932H149.62C149.735 32.932 149.846 32.8861 149.928 32.8044C150.01 32.7227 150.056 32.6119 150.056 32.4964V26.0604C151.26 27.2242 152.872 27.8723 154.548 27.8664C158.7 27.8664 162.037 24.1909 162.037 19.6442C162.037 15.0974 158.7 11.4219 154.548 11.4219ZM153.552 23.383C151.616 23.383 150.056 21.6997 150.056 19.6442C150.056 17.5886 151.616 15.9053 153.552 15.9053C155.489 15.9053 157.045 17.5886 157.045 19.6442C157.045 21.6997 155.485 23.383 153.552 23.383Z" fill="black"/>
<path d="M117.475 10.4284C118.92 10.3956 120.334 10.8505 121.487 11.7196C121.534 11.7549 121.588 11.7803 121.645 11.7943C121.702 11.8082 121.761 11.8105 121.819 11.8008C121.877 11.7912 121.932 11.7699 121.981 11.7382C122.031 11.7065 122.073 11.6652 122.106 11.6166L124.158 8.59861C124.22 8.50746 124.245 8.39635 124.228 8.28761C124.211 8.17888 124.153 8.08057 124.067 8.01243C122.179 6.66979 119.92 5.94344 117.602 5.93311C111.252 5.93311 106.121 10.8562 106.121 16.8961C106.121 22.936 111.28 27.8591 117.602 27.8591C119.92 27.845 122.177 27.1144 124.063 25.7679C124.15 25.7003 124.208 25.6016 124.224 25.4923C124.241 25.3831 124.214 25.2718 124.15 25.1817L122.106 22.1716C122.074 22.1233 122.032 22.0821 121.983 22.0504C121.934 22.0187 121.879 21.9972 121.821 21.9873C121.764 21.9773 121.705 21.979 121.648 21.9923C121.592 22.0056 121.538 22.0302 121.491 22.0647C120.497 22.8137 119.308 23.2608 118.066 23.3525C116.824 23.4443 115.582 23.1767 114.489 22.582C113.395 21.9872 112.497 21.0905 111.901 19.9991C111.305 18.9078 111.037 17.6682 111.129 16.4287C111.257 14.8228 111.976 13.3211 113.148 12.2131C114.32 11.1051 115.861 10.4693 117.475 10.4284Z" fill="black"/>
<path d="M70.4285 11.9531C70.3739 11.9211 70.3117 11.9043 70.2484 11.9045C70.185 11.9048 70.123 11.922 70.0686 11.9544C70.0142 11.9868 69.9696 12.0331 69.9394 12.0887C69.9091 12.1442 69.8944 12.2068 69.8967 12.2699V18.7732C69.8975 18.8353 69.9148 18.896 69.9466 18.9493C69.9785 19.0026 70.024 19.0465 70.0783 19.0767C70.1327 19.1068 70.1941 19.1221 70.2562 19.121C70.3184 19.1199 70.3792 19.1024 70.4324 19.0703L75.6867 15.8186C75.7367 15.7867 75.7778 15.7428 75.8063 15.6909C75.8348 15.639 75.8497 15.5808 75.8497 15.5216C75.8497 15.4624 75.8348 15.4041 75.8063 15.3522C75.7778 15.3003 75.7367 15.2564 75.6867 15.2245L70.4285 11.9531Z" fill="black"/>
</svg>
